<?xml version="1.0" standalone="no"?>
<!DOCTYPE svg PUBLIC "-//W3C//DTD SVG 20010904//EN"
 "http://www.w3.org/TR/2001/REC-SVG-20010904/DTD/svg10.dtd">
<svg version="1.0" xmlns="http://www.w3.org/2000/svg"
 width="900.000000pt" height="900.000000pt" viewBox="0 0 900.000000 900.000000"
 preserveAspectRatio="xMidYMid meet">
<metadata>
Created by potrace 1.10, written by Peter Selinger 2001-2011
</metadata>
<g transform="translate(0.000000,900.000000) scale(0.100000,-0.100000)"
fill="#000000" stroke="none">
<path d="M4455 8516 c-22 -7 -66 -25 -99 -40 -32 -14 -62 -26 -67 -26 -5 0
-52 -20 -105 -45 -52 -25 -99 -45 -103 -45 -4 0 -101 -40 -216 -90 -115 -49
-213 -90 -217 -90 -4 0 -51 -20 -104 -45 -52 -25 -98 -45 -102 -45 -4 0 -104
-41 -222 -91 -118 -50 -237 -100 -265 -111 -81 -33 -149 -82 -188 -136 -72
-97 -67 23 -67 -1597 l0 -1462 22 -20 c13 -12 64 -37 113 -58 50 -20 102 -43
117 -51 33 -18 53 -18 86 0 53 28 175 76 192 76 16 0 55 -16 210 -82 25 -11
54 -23 65 -28 43 -18 532 -223 560 -235 17 -8 56 -24 88 -36 32 -13 63 -29 69
-36 6 -8 10 -44 9 -82 -2 -86 10 -113 62 -136 23 -9 60 -25 82 -35 149 -65
152 -66 220 -35 83 36 123 53 152 64 60 24 72 47 75 145 l3 89 135 57 c74 32
149 63 165 70 17 6 44 17 60 25 17 7 145 61 285 120 140 59 269 114 287 121
17 8 38 14 46 14 15 0 140 -50 189 -76 34 -18 73 -18 106 1 28 15 92 43 152
65 19 7 45 22 58 33 l22 21 -2 1490 -3 1491 -28 47 c-43 73 -90 113 -182 157
-46 23 -88 41 -94 41 -5 0 -53 20 -105 45 -53 25 -100 45 -105 45 -7 0 -46 16
-156 65 -94 42 -270 115 -277 115 -5 0 -39 14 -76 31 -83 39 -93 43 -277 120
-82 34 -178 75 -213 90 -34 16 -67 29 -73 29 -5 0 -36 13 -68 29 -50 24 -144
53 -169 50 -4 0 -25 -6 -47 -13z m-1355 -1203 c47 -19 103 -43 125 -53 89 -41
158 -70 166 -70 4 0 46 -18 93 -40 47 -22 88 -40 91 -40 7 0 225 -90 290 -120
91 -42 158 -70 166 -70 5 0 37 -13 72 -29 34 -16 88 -40 120 -52 67 -27 126
-73 159 -127 l23 -37 3 -1035 c2 -569 0 -1054 -3 -1077 -7 -49 -27 -73 -58
-73 -17 0 -225 83 -414 166 -59 26 -96 41 -248 104 -82 35 -173 73 -201 86
-27 12 -75 32 -105 44 -30 11 -67 27 -84 35 -16 7 -80 34 -141 60 -124 52
-180 86 -195 118 -6 12 -17 34 -25 49 -22 41 -20 92 4 123 21 26 22 38 22 236
0 203 -1 209 -25 255 l-25 47 0 427 0 427 25 47 c24 46 25 53 25 252 0 184 -2
209 -18 232 -29 42 -33 61 -22 102 11 40 42 62 75 53 11 -3 58 -21 105 -40z"/>
<path d="M3314 6422 c-52 -29 -69 -45 -104 -100 -19 -30 -50 -62 -71 -74 -92
-52 -130 -177 -94 -313 34 -132 134 -218 233 -201 28 4 46 0 81 -21 61 -35
160 -38 213 -5 49 30 92 81 119 139 19 41 23 66 23 168 1 142 -17 203 -89 300
-61 82 -137 125 -220 124 -37 0 -72 -6 -91 -17z m-38 -257 c72 -42 110 -156
84 -250 -15 -54 -70 -105 -112 -105 -41 0 -96 37 -123 84 -57 97 -49 203 21
264 45 39 73 40 130 7z"/>
<path d="M3990 6223 c-17 -21 -33 -55 -37 -76 -3 -23 -21 -56 -45 -85 -85
-101 -98 -156 -98 -408 0 -196 8 -242 48 -263 26 -14 77 -14 103 -1 43 24 49
57 49 274 0 112 3 211 6 220 5 12 21 16 68 16 97 1 138 47 138 158 0 121 -63
202 -155 202 -40 0 -49 -4 -77 -37z"/>
<path d="M7430 3594 c-65 -20 -138 -80 -168 -137 -22 -44 -30 -84 -41 -219 -1
-5 -32 -8 -69 -8 -40 0 -73 -5 -80 -12 -12 -12 -17 -134 -6 -162 5 -12 21 -16
75 -16 65 0 70 -2 79 -26 15 -39 13 -396 -2 -416 -10 -13 -35 -17 -115 -20
-56 -2 -104 -6 -107 -9 -12 -12 -18 -125 -7 -151 l11 -28 379 0 379 0 6 23 c9
34 7 113 -4 141 l-10 26 -139 0 c-117 0 -140 2 -145 16 -12 31 -7 419 6 432 7
7 43 12 93 12 50 0 86 5 93 12 16 16 16 139 0 161 -10 13 -33 17 -103 19 l-90
3 -3 57 c-3 50 0 60 26 89 l28 32 125 4 c145 6 149 8 149 96 0 99 3 97 -168
96 -95 -1 -163 -6 -192 -15z"/>
<path d="M1215 3477 c-3 -12 -5 -52 -3 -87 l3 -65 72 -5 c39 -3 75 -9 80 -13
9 -10 17 -646 8 -694 l-6 -31 -123 -4 c-69 -2 -128 -6 -132 -11 -13 -13 -16
-120 -5 -149 l11 -28 379 0 379 0 6 23 c9 34 7 113 -4 141 -9 26 -10 26 -134
26 -104 0 -125 3 -130 16 -3 9 -6 216 -6 460 l0 444 -195 0 c-194 0 -195 0
-200 -23z"/>
<path d="M4627 3494 c-4 -4 -7 -73 -7 -153 0 -156 -7 -185 -37 -164 -76 53
-166 72 -275 59 -113 -14 -229 -124 -277 -261 -29 -81 -29 -247 -2 -327 27
-79 44 -108 94 -164 112 -124 307 -150 441 -59 41 28 43 27 60 -7 11 -22 17
-23 116 -23 l105 0 0 550 0 550 -106 3 c-58 1 -108 -1 -112 -4z m-107 -464
c22 -11 52 -39 67 -62 27 -40 28 -47 28 -164 0 -122 0 -122 -31 -161 -45 -55
-88 -77 -150 -77 -67 1 -106 26 -152 94 -35 53 -36 58 -36 145 0 73 4 98 21
130 55 104 159 143 253 95z"/>
<path d="M402 3230 c-154 -33 -273 -175 -293 -350 -35 -303 133 -509 413 -510
130 0 225 33 306 105 57 51 94 119 96 174 l1 36 -107 3 -107 3 -25 -40 c-41
-64 -80 -86 -157 -86 -56 0 -71 4 -102 28 -63 48 -81 96 -82 217 0 94 3 109
24 143 13 22 42 52 64 68 33 24 50 29 99 29 75 0 110 -19 149 -82 l29 -48 104
0 c115 0 121 3 109 63 -17 86 -93 176 -190 222 -51 24 -72 28 -173 31 -63 2
-134 -1 -158 -6z"/>
<path d="M2342 3230 c-57 -12 -136 -56 -181 -101 -90 -90 -132 -243 -110 -399
32 -229 186 -360 424 -360 116 0 220 34 293 95 43 36 95 120 115 186 25 82 23
247 -3 323 -40 112 -107 187 -209 234 -48 22 -72 26 -171 28 -63 2 -134 -1
-158 -6z m216 -194 c34 -18 64 -51 88 -96 14 -27 18 -57 18 -136 0 -94 -2
-103 -30 -149 -59 -95 -172 -122 -262 -62 -129 85 -121 357 12 438 38 23 134
26 174 5z"/>
<path d="M5283 3230 c-88 -19 -165 -76 -203 -151 -25 -48 -27 -146 -4 -192 46
-91 97 -117 369 -186 97 -25 134 -55 119 -98 -20 -59 -137 -82 -219 -44 -48
22 -70 46 -79 86 -4 16 -13 33 -19 37 -20 13 -182 9 -195 -4 -16 -16 -15 -28
9 -94 52 -138 189 -215 382 -214 187 1 315 77 353 209 26 86 4 166 -60 224
-54 49 -106 69 -274 103 -42 8 -96 24 -119 36 -37 17 -43 24 -43 51 0 18 4 37
8 42 14 20 63 35 111 35 70 0 112 -21 140 -70 l23 -41 96 3 c95 3 97 3 100 28
4 37 -32 112 -75 154 -21 20 -62 49 -91 63 -46 23 -68 26 -170 29 -64 2 -136
-1 -159 -6z"/>
<path d="M6255 3231 c-58 -11 -147 -56 -188 -96 -43 -42 -80 -113 -75 -146 3
-23 6 -24 105 -27 l102 -3 26 40 c14 22 39 48 56 57 90 46 221 18 254 -55 9
-21 15 -51 13 -67 l-3 -29 -115 -6 c-232 -13 -325 -51 -396 -163 -14 -22 -18
-48 -18 -110 0 -71 4 -87 28 -129 49 -82 138 -127 252 -127 75 0 148 20 203
54 44 28 56 26 63 -9 3 -18 11 -20 108 -20 l105 0 0 320 c0 318 0 320 -24 363
-29 53 -96 110 -159 135 -52 21 -261 32 -337 18z m279 -507 c9 -4 16 -18 16
-35 0 -21 -12 -38 -50 -71 -57 -50 -74 -56 -153 -57 -51 -1 -61 2 -82 25 -14
15 -25 39 -25 54 0 31 43 76 80 83 39 7 197 8 214 1z"/>
<path d="M8234 3230 c-107 -23 -212 -102 -257 -194 -38 -77 -50 -153 -44 -272
4 -87 9 -111 36 -167 70 -146 208 -227 388 -227 136 0 249 39 321 111 47 47
95 139 90 172 -3 21 -9 22 -110 25 l-107 3 -27 -40 c-70 -106 -250 -107 -319
-2 -28 42 -43 115 -26 125 6 4 135 7 286 6 177 0 282 3 295 10 17 9 20 21 20
72 0 119 -49 240 -123 304 -74 63 -117 76 -257 80 -69 2 -143 -1 -166 -6z
m208 -180 c62 -18 113 -98 72 -114 -24 -9 -297 -7 -312 3 -12 7 -11 13 2 38
35 68 139 100 238 73z"/>
<path d="M3049 3209 c-8 -15 -10 -109 -7 -318 4 -331 7 -345 81 -428 94 -104
282 -124 405 -42 54 37 67 36 81 -1 l10 -31 103 3 103 3 0 415 0 415 -90 3
c-149 5 -134 34 -137 -266 l-3 -257 -30 -39 c-50 -66 -100 -96 -159 -96 -31 0
-61 6 -75 16 -47 33 -51 64 -51 352 0 195 -3 271 -12 280 -8 8 -47 12 -110 12
-89 0 -98 -2 -109 -21z"/>
<path d="M6280 1892 l-95 -47 -3 -45 c-5 -90 -4 -89 -85 -92 l-72 -3 -3 -92
-3 -93 69 0 c44 0 73 -5 80 -12 6 -8 12 -99 15 -218 2 -124 9 -221 16 -244 8
-24 35 -61 69 -95 74 -73 105 -81 321 -81 193 0 181 -6 181 95 0 99 6 95 -134
95 -137 0 -185 10 -206 42 -19 30 -28 364 -11 397 10 18 22 21 104 23 l92 3 3
83 c3 81 2 82 -24 92 -14 6 -57 10 -95 9 -39 -1 -73 2 -77 6 -4 3 -9 56 -10
116 -3 94 -6 109 -20 108 -10 0 -60 -21 -112 -47z"/>
<path d="M4433 1711 c-34 -10 -78 -30 -98 -45 -39 -30 -65 -28 -65 3 0 11 -9
25 -19 31 -22 11 -131 14 -180 4 l-31 -7 2 -411 3 -411 105 -3 c90 -2 107 0
117 15 10 12 13 79 13 258 l0 242 28 39 c16 21 46 52 67 68 31 24 48 29 96 30
47 1 62 -3 82 -22 41 -39 47 -82 47 -350 0 -138 3 -257 6 -266 5 -13 24 -16
110 -16 92 0 104 2 114 19 14 26 13 472 -1 562 -6 39 -19 90 -30 114 -28 63
-98 121 -177 145 -77 24 -108 24 -189 1z"/>
<path d="M5294 1711 c-177 -43 -277 -160 -303 -351 -14 -99 1 -213 39 -292 55
-117 166 -192 312 -211 212 -27 384 55 461 221 28 61 31 78 35 189 3 102 1
132 -16 180 -50 151 -141 231 -299 267 -89 20 -138 19 -229 -3z m239 -220 c54
-50 70 -96 71 -201 0 -86 -3 -100 -30 -150 -23 -43 -39 -60 -74 -77 -145 -71
-280 34 -280 219 0 88 17 142 61 192 31 35 48 46 86 53 64 12 131 -2 166 -36z"/>
<path d="M7276 1714 c-219 -49 -326 -188 -326 -424 0 -164 38 -256 143 -347
73 -63 155 -88 292 -87 155 0 252 36 332 123 33 35 75 126 71 153 -3 22 -6 23
-116 26 -109 3 -113 2 -122 -20 -36 -86 -165 -125 -255 -77 -59 32 -105 102
-105 159 l0 30 293 0 c215 0 296 3 305 12 27 27 7 190 -33 271 -31 61 -65 100
-119 134 -82 53 -242 74 -360 47z m195 -188 c47 -20 81 -59 77 -88 -3 -23 -5
-23 -143 -26 -158 -3 -185 1 -185 26 0 75 154 129 251 88z"/>
<path d="M8235 1711 c-159 -39 -235 -121 -235 -249 0 -76 18 -120 68 -163 47
-42 103 -64 245 -99 141 -35 166 -46 186 -82 14 -24 14 -28 -4 -49 -41 -45
-111 -60 -187 -39 -47 13 -98 56 -98 81 0 10 -9 28 -20 39 -17 17 -33 20 -98
20 -105 0 -117 -9 -101 -75 24 -103 98 -179 207 -217 55 -18 88 -23 182 -22
137 0 214 23 284 86 75 66 100 186 58 280 -36 81 -112 122 -299 159 -59 12
-125 30 -145 41 -32 16 -38 23 -38 51 0 55 33 77 114 77 82 0 120 -19 147 -73
l20 -38 97 3 97 3 3 29 c5 40 -28 103 -80 151 -57 53 -89 69 -175 89 -89 20
-139 19 -228 -3z"/>
</g>
</svg>
